<svg width="26" height="25" viewBox="0 0 26 25" fill="none" xmlns="http://www.w3.org/2000/svg">
<path fill-rule="evenodd" clip-rule="evenodd" d="M8.51416 0C8.23802 0 8.01416 0.223858 8.01416 0.5V2.44116C8.01416 2.71731 8.23802 2.94116 8.51416 2.94116H16.8892C17.1653 2.94116 17.3892 2.71731 17.3892 2.44116V0.5C17.3892 0.223858 17.1653 0 16.8892 0H8.51416ZM8.51416 4.41187C8.23802 4.41187 8.01416 4.63572 8.01416 4.91187V6.85303C8.01416 7.12917 8.23802 7.35303 8.51416 7.35303H16.8892C17.1653 7.35303 17.3892 7.12917 17.3892 6.85303V4.91187C17.3892 4.63572 17.1653 4.41187 16.8892 4.41187H8.51416ZM0.201172 9.32336C0.201172 9.04722 0.42503 8.82336 0.701172 8.82336H24.7012C24.9773 8.82336 25.2012 9.04722 25.2012 9.32336V11.2645C25.2012 11.5407 24.9773 11.7645 24.7012 11.7645H0.701171C0.425029 11.7645 0.201172 11.5407 0.201172 11.2645V9.32336ZM0.701172 13.2356C0.42503 13.2356 0.201172 13.4595 0.201172 13.7356V15.6768C0.201172 15.9529 0.425029 16.1768 0.701171 16.1768H24.7012C24.9773 16.1768 25.2012 15.9529 25.2012 15.6768V13.7356C25.2012 13.4595 24.9773 13.2356 24.7012 13.2356H0.701172ZM8.01416 18.147C8.01416 17.8708 8.23802 17.647 8.51416 17.647H16.8892C17.1653 17.647 17.3892 17.8708 17.3892 18.147V20.0881C17.3892 20.3643 17.1653 20.5881 16.8892 20.5881H8.51416C8.23802 20.5881 8.01416 20.3643 8.01416 20.0881V18.147ZM8.51416 22.0588C8.23802 22.0588 8.01416 22.2827 8.01416 22.5588V24.5C8.01416 24.7761 8.23802 25 8.51416 25H16.8892C17.1653 25 17.3892 24.7761 17.3892 24.5V22.5588C17.3892 22.2827 17.1653 22.0588 16.8892 22.0588H8.51416Z" />
</svg>
