<?xml version="1.0" encoding="utf-8"?>
<!-- Generator: Adobe Illustrator 23.0.2, SVG Export Plug-In . SVG Version: 6.00 Build 0)  -->
<svg version="1.1" id="Layer_1" xmlns="http://www.w3.org/2000/svg" xmlns:xlink="http://www.w3.org/1999/xlink" x="0px" y="0px"
	 viewBox="0 0 26 25" style="enable-background:new 0 0 26 25;" xml:space="preserve">
<style type="text/css">
	.st0{fill-rule:evenodd;clip-rule:evenodd;fill:#BD3830;}
</style>
<path class="st0" d="M8.8,0C8.5,0,8.3,0.2,8.3,0.5v1.9c0,0.3,0.2,0.5,0.5,0.5h8.4c0.3,0,0.5-0.2,0.5-0.5V0.5c0-0.3-0.2-0.5-0.5-0.5
	H8.8z M8.8,4.4c-0.3,0-0.5,0.2-0.5,0.5v1.9c0,0.3,0.2,0.5,0.5,0.5h8.4c0.3,0,0.5-0.2,0.5-0.5V4.9c0-0.3-0.2-0.5-0.5-0.5H8.8z
	 M0.5,9.3C0.5,9,0.7,8.8,1,8.8h24c0.3,0,0.5,0.2,0.5,0.5v1.9c0,0.3-0.2,0.5-0.5,0.5H1c-0.3,0-0.5-0.2-0.5-0.5V9.3z M1,13.2
	c-0.3,0-0.5,0.2-0.5,0.5v1.9c0,0.3,0.2,0.5,0.5,0.5h24c0.3,0,0.5-0.2,0.5-0.5v-1.9c0-0.3-0.2-0.5-0.5-0.5H1z M8.3,18.1
	c0-0.3,0.2-0.5,0.5-0.5h8.4c0.3,0,0.5,0.2,0.5,0.5v1.9c0,0.3-0.2,0.5-0.5,0.5H8.8c-0.3,0-0.5-0.2-0.5-0.5V18.1z M8.8,22.1
	c-0.3,0-0.5,0.2-0.5,0.5v1.9c0,0.3,0.2,0.5,0.5,0.5h8.4c0.3,0,0.5-0.2,0.5-0.5v-1.9c0-0.3-0.2-0.5-0.5-0.5H8.8z"/>
</svg>
